<mxfile host="Electron" modified="2023-04-16T16:56:22.497Z" agent="Mozilla/5.0 (Windows NT 10.0; Win64; x64) AppleWebKit/537.36 (KHTML, like Gecko) draw.io/21.1.2 Chrome/106.0.5249.199 Electron/21.4.3 Safari/537.36" etag="XwiiWocvaLVP4OPjFVC3" version="21.1.2" type="device">
  <diagram name="Page-1" id="Q4-CxTQ7Mwha1XIJfNH5">
    <mxGraphModel dx="1418" dy="828" grid="1" gridSize="10" guides="1" tooltips="1" connect="1" arrows="1" fold="1" page="1" pageScale="1" pageWidth="850" pageHeight="1100" math="0" shadow="0">
      <root>
        <mxCell id="0" />
        <mxCell id="1" parent="0" />
        <mxCell id="t9POVJm5YxXZwowacQ9W-9" value="&amp;nbsp;" style="html=1;whiteSpace=wrap;strokeColor=none;fillColor=none;strokeWidth=2;" parent="1" vertex="1">
          <mxGeometry x="40" y="195" width="80" height="120" as="geometry" />
        </mxCell>
        <mxCell id="t9POVJm5YxXZwowacQ9W-1" value="Пользователь" style="shape=umlActor;verticalLabelPosition=bottom;verticalAlign=top;html=1;strokeWidth=2;" parent="1" vertex="1">
          <mxGeometry x="65" y="225" width="30" height="60" as="geometry" />
        </mxCell>
        <mxCell id="t9POVJm5YxXZwowacQ9W-2" value="Мобильное приложение" style="html=1;whiteSpace=wrap;rounded=1;strokeWidth=2;fontStyle=1;verticalAlign=top;" parent="1" vertex="1">
          <mxGeometry x="200" y="40" width="160" height="430" as="geometry" />
        </mxCell>
        <mxCell id="t9POVJm5YxXZwowacQ9W-20" style="rounded=0;orthogonalLoop=1;jettySize=auto;html=1;exitX=1;exitY=0.5;exitDx=0;exitDy=0;entryX=0;entryY=0.5;entryDx=0;entryDy=0;entryPerimeter=0;dashed=1;strokeWidth=2;endArrow=none;endFill=0;" parent="1" source="t9POVJm5YxXZwowacQ9W-3" target="t9POVJm5YxXZwowacQ9W-15" edge="1">
          <mxGeometry relative="1" as="geometry" />
        </mxCell>
        <mxCell id="t9POVJm5YxXZwowacQ9W-3" value="Создание заказа" style="ellipse;whiteSpace=wrap;html=1;fontStyle=1;strokeWidth=2;" parent="1" vertex="1">
          <mxGeometry x="210" y="70" width="140" height="70" as="geometry" />
        </mxCell>
        <mxCell id="t9POVJm5YxXZwowacQ9W-21" style="rounded=0;orthogonalLoop=1;jettySize=auto;html=1;exitX=1;exitY=0.5;exitDx=0;exitDy=0;entryX=0;entryY=0.5;entryDx=0;entryDy=0;entryPerimeter=0;dashed=1;endArrow=none;endFill=0;strokeWidth=2;" parent="1" source="t9POVJm5YxXZwowacQ9W-4" target="t9POVJm5YxXZwowacQ9W-16" edge="1">
          <mxGeometry relative="1" as="geometry" />
        </mxCell>
        <mxCell id="t9POVJm5YxXZwowacQ9W-4" value="Просмотр списка заказов" style="ellipse;whiteSpace=wrap;html=1;fontStyle=1;strokeWidth=2;" parent="1" vertex="1">
          <mxGeometry x="210" y="150" width="140" height="70" as="geometry" />
        </mxCell>
        <mxCell id="t9POVJm5YxXZwowacQ9W-22" style="rounded=0;orthogonalLoop=1;jettySize=auto;html=1;exitX=1;exitY=0.5;exitDx=0;exitDy=0;entryX=0;entryY=0.5;entryDx=0;entryDy=0;entryPerimeter=0;dashed=1;strokeWidth=2;endArrow=none;endFill=0;" parent="1" source="t9POVJm5YxXZwowacQ9W-5" target="t9POVJm5YxXZwowacQ9W-17" edge="1">
          <mxGeometry relative="1" as="geometry" />
        </mxCell>
        <mxCell id="t9POVJm5YxXZwowacQ9W-5" value="Просмотр заказа&lt;br&gt;по id" style="ellipse;whiteSpace=wrap;html=1;fontStyle=1;strokeWidth=2;" parent="1" vertex="1">
          <mxGeometry x="210" y="230" width="140" height="70" as="geometry" />
        </mxCell>
        <mxCell id="t9POVJm5YxXZwowacQ9W-23" style="rounded=0;orthogonalLoop=1;jettySize=auto;html=1;exitX=1;exitY=0.5;exitDx=0;exitDy=0;entryX=0;entryY=0.5;entryDx=0;entryDy=0;entryPerimeter=0;dashed=1;endArrow=none;endFill=0;strokeWidth=2;" parent="1" source="t9POVJm5YxXZwowacQ9W-6" target="t9POVJm5YxXZwowacQ9W-18" edge="1">
          <mxGeometry relative="1" as="geometry" />
        </mxCell>
        <mxCell id="t9POVJm5YxXZwowacQ9W-6" value="Отмена заказа&lt;br&gt;по id" style="ellipse;whiteSpace=wrap;html=1;fontStyle=1;strokeWidth=2;" parent="1" vertex="1">
          <mxGeometry x="210" y="310" width="140" height="70" as="geometry" />
        </mxCell>
        <mxCell id="t9POVJm5YxXZwowacQ9W-24" style="rounded=0;orthogonalLoop=1;jettySize=auto;html=1;exitX=1;exitY=0.5;exitDx=0;exitDy=0;dashed=1;strokeWidth=2;endArrow=none;endFill=0;" parent="1" source="t9POVJm5YxXZwowacQ9W-7" target="t9POVJm5YxXZwowacQ9W-19" edge="1">
          <mxGeometry relative="1" as="geometry" />
        </mxCell>
        <mxCell id="t9POVJm5YxXZwowacQ9W-7" value="Просмотр статуса заказа" style="ellipse;whiteSpace=wrap;html=1;fontStyle=1;strokeWidth=2;" parent="1" vertex="1">
          <mxGeometry x="210" y="390" width="140" height="70" as="geometry" />
        </mxCell>
        <mxCell id="t9POVJm5YxXZwowacQ9W-10" style="rounded=0;orthogonalLoop=1;jettySize=auto;html=1;exitX=1;exitY=0.5;exitDx=0;exitDy=0;entryX=0;entryY=0.5;entryDx=0;entryDy=0;strokeWidth=2;" parent="1" source="t9POVJm5YxXZwowacQ9W-9" target="t9POVJm5YxXZwowacQ9W-3" edge="1">
          <mxGeometry relative="1" as="geometry" />
        </mxCell>
        <mxCell id="t9POVJm5YxXZwowacQ9W-11" style="rounded=0;orthogonalLoop=1;jettySize=auto;html=1;exitX=1;exitY=0.5;exitDx=0;exitDy=0;entryX=0;entryY=0.5;entryDx=0;entryDy=0;strokeWidth=2;" parent="1" source="t9POVJm5YxXZwowacQ9W-9" target="t9POVJm5YxXZwowacQ9W-4" edge="1">
          <mxGeometry relative="1" as="geometry" />
        </mxCell>
        <mxCell id="t9POVJm5YxXZwowacQ9W-12" style="rounded=0;orthogonalLoop=1;jettySize=auto;html=1;exitX=1;exitY=0.5;exitDx=0;exitDy=0;entryX=0;entryY=0.5;entryDx=0;entryDy=0;strokeWidth=2;" parent="1" source="t9POVJm5YxXZwowacQ9W-9" target="t9POVJm5YxXZwowacQ9W-5" edge="1">
          <mxGeometry relative="1" as="geometry" />
        </mxCell>
        <mxCell id="t9POVJm5YxXZwowacQ9W-13" style="rounded=0;orthogonalLoop=1;jettySize=auto;html=1;exitX=1;exitY=0.5;exitDx=0;exitDy=0;entryX=0;entryY=0.5;entryDx=0;entryDy=0;strokeWidth=2;" parent="1" source="t9POVJm5YxXZwowacQ9W-9" target="t9POVJm5YxXZwowacQ9W-6" edge="1">
          <mxGeometry relative="1" as="geometry" />
        </mxCell>
        <mxCell id="t9POVJm5YxXZwowacQ9W-14" style="rounded=0;orthogonalLoop=1;jettySize=auto;html=1;exitX=1;exitY=0.5;exitDx=0;exitDy=0;entryX=0;entryY=0.5;entryDx=0;entryDy=0;strokeWidth=2;" parent="1" source="t9POVJm5YxXZwowacQ9W-9" target="t9POVJm5YxXZwowacQ9W-7" edge="1">
          <mxGeometry relative="1" as="geometry" />
        </mxCell>
        <mxCell id="t9POVJm5YxXZwowacQ9W-15" value="POST&amp;nbsp; &amp;nbsp;/api/v1/orders&lt;br&gt;HTTP statuses: 201, 400, 401, 409, 500" style="shape=note2;boundedLbl=1;whiteSpace=wrap;html=1;size=25;verticalAlign=middle;align=left;strokeWidth=2;fontStyle=1;fontFamily=Courier New;" parent="1" vertex="1">
          <mxGeometry x="400" y="85" width="360" height="40" as="geometry" />
        </mxCell>
        <mxCell id="t9POVJm5YxXZwowacQ9W-16" value="GET&amp;nbsp; &amp;nbsp; /api/v1/orders&lt;br&gt;HTTP statuses: 200, 401, 409, 500" style="shape=note2;boundedLbl=1;whiteSpace=wrap;html=1;size=25;verticalAlign=middle;align=left;strokeWidth=2;fontStyle=1;fontFamily=Courier New;" parent="1" vertex="1">
          <mxGeometry x="400" y="164.38" width="360" height="41.25" as="geometry" />
        </mxCell>
        <mxCell id="t9POVJm5YxXZwowacQ9W-17" value="GET&amp;nbsp; &amp;nbsp; /api/v1/orders/{id}&lt;br&gt;HTTP statuses: 200, 401, 404, 409, 500" style="shape=note2;boundedLbl=1;whiteSpace=wrap;html=1;size=25;verticalAlign=middle;align=left;strokeWidth=2;fontStyle=1;fontFamily=Courier New;" parent="1" vertex="1">
          <mxGeometry x="400" y="243.75" width="360" height="42.5" as="geometry" />
        </mxCell>
        <mxCell id="t9POVJm5YxXZwowacQ9W-18" value="PATCH&amp;nbsp; /api/v1/orders/{id}/cancel&lt;br&gt;HTTP statuses: 200, 401, 404, 409, 500" style="shape=note2;boundedLbl=1;whiteSpace=wrap;html=1;size=25;verticalAlign=middle;align=left;strokeWidth=2;fontStyle=1;fontFamily=Courier New;" parent="1" vertex="1">
          <mxGeometry x="400" y="324.38" width="360" height="41.25" as="geometry" />
        </mxCell>
        <mxCell id="t9POVJm5YxXZwowacQ9W-19" value="GET&amp;nbsp; &amp;nbsp; /api/v1/order-status/order/{orderId}&lt;br&gt;HTTP statuses: 200, 409, 500" style="shape=note2;boundedLbl=1;whiteSpace=wrap;html=1;size=25;verticalAlign=middle;align=left;strokeWidth=2;fontStyle=1;fontFamily=Courier New;" parent="1" vertex="1">
          <mxGeometry x="400" y="404.38" width="360" height="41.25" as="geometry" />
        </mxCell>
      </root>
    </mxGraphModel>
  </diagram>
</mxfile>
